<?xml version="1.0" encoding="utf-8" standalone="no"?>
<!DOCTYPE svg PUBLIC "-//W3C//DTD SVG 1.1//EN"
  "http://www.w3.org/Graphics/SVG/1.1/DTD/svg11.dtd">
<!-- Created with matplotlib (https://matplotlib.org/) -->
<svg height="432pt" version="1.1" viewBox="0 0 432 432" width="432pt" xmlns="http://www.w3.org/2000/svg" xmlns:xlink="http://www.w3.org/1999/xlink">
 <defs>
  <style type="text/css">
*{stroke-linecap:butt;stroke-linejoin:round;}
  </style>
 </defs>
 <g id="figure_1">
  <g id="patch_1">
   <path d="M 0 432 
L 432 432 
L 432 0 
L 0 0 
z
" style="fill:#ffffff;"/>
  </g>
  <g id="axes_1">
   <g id="patch_2">
    <path d="M 54 378 
L 388.8 378 
L 388.8 51.84 
L 54 51.84 
z
" style="fill:#ffffff;"/>
   </g>
   <g id="patch_3">
    <path clip-path="url(#p18a9eacdcb)" d="M 58.923529 378 
L 68.770588 378 
L 68.770588 67.371429 
L 58.923529 67.371429 
z
" style="fill:#006ba4;"/>
   </g>
   <g id="patch_4">
    <path clip-path="url(#p18a9eacdcb)" d="M 78.617647 378 
L 88.464706 378 
L 88.464706 70.049261 
L 78.617647 70.049261 
z
" style="fill:#006ba4;"/>
   </g>
   <g id="patch_5">
    <path clip-path="url(#p18a9eacdcb)" d="M 98.311765 378 
L 108.158824 378 
L 108.158824 69.742639 
L 98.311765 69.742639 
z
" style="fill:#006ba4;"/>
   </g>
   <g id="patch_6">
    <path clip-path="url(#p18a9eacdcb)" d="M 118.005882 378 
L 127.852941 378 
L 127.852941 375.504991 
L 118.005882 375.504991 
z
" style="fill:#006ba4;"/>
   </g>
   <g id="patch_7">
    <path clip-path="url(#p18a9eacdcb)" d="M 137.7 378 
L 147.547059 378 
L 147.547059 73.065231 
L 137.7 73.065231 
z
" style="fill:#006ba4;"/>
   </g>
   <g id="patch_8">
    <path clip-path="url(#p18a9eacdcb)" d="M 157.394118 378 
L 167.241176 378 
L 167.241176 78.148338 
L 157.394118 78.148338 
z
" style="fill:#006ba4;"/>
   </g>
   <g id="patch_9">
    <path clip-path="url(#p18a9eacdcb)" d="M 177.088235 378 
L 186.935294 378 
L 186.935294 261.514286 
L 177.088235 261.514286 
z
" style="fill:#006ba4;"/>
   </g>
   <g id="patch_10">
    <path clip-path="url(#p18a9eacdcb)" d="M 196.782353 378 
L 206.629412 378 
L 206.629412 225.616173 
L 196.782353 225.616173 
z
" style="fill:#006ba4;"/>
   </g>
   <g id="patch_11">
    <path clip-path="url(#p18a9eacdcb)" d="M 216.476471 378 
L 226.323529 378 
L 226.323529 251.314037 
L 216.476471 251.314037 
z
" style="fill:#006ba4;"/>
   </g>
   <g id="patch_12">
    <path clip-path="url(#p18a9eacdcb)" d="M 236.170588 378 
L 246.017647 378 
L 246.017647 247.736406 
L 236.170588 247.736406 
z
" style="fill:#006ba4;"/>
   </g>
   <g id="patch_13">
    <path clip-path="url(#p18a9eacdcb)" d="M 255.864706 378 
L 265.711765 378 
L 265.711765 239.942857 
L 255.864706 239.942857 
z
" style="fill:#006ba4;"/>
   </g>
   <g id="patch_14">
    <path clip-path="url(#p18a9eacdcb)" d="M 275.558824 378 
L 285.405882 378 
L 285.405882 261.840576 
L 275.558824 261.840576 
z
" style="fill:#006ba4;"/>
   </g>
   <g id="patch_15">
    <path clip-path="url(#p18a9eacdcb)" d="M 295.252941 378 
L 305.1 378 
L 305.1 361.523602 
L 295.252941 361.523602 
z
" style="fill:#006ba4;"/>
   </g>
   <g id="patch_16">
    <path clip-path="url(#p18a9eacdcb)" d="M 314.947059 378 
L 324.794118 378 
L 324.794118 313.057503 
L 314.947059 313.057503 
z
" style="fill:#006ba4;"/>
   </g>
   <g id="patch_17">
    <path clip-path="url(#p18a9eacdcb)" d="M 334.641176 378 
L 344.488235 378 
L 344.488235 344.718367 
L 334.641176 344.718367 
z
" style="fill:#006ba4;"/>
   </g>
   <g id="patch_18">
    <path clip-path="url(#p18a9eacdcb)" d="M 354.335294 378 
L 364.182353 378 
L 364.182353 365.321283 
L 354.335294 365.321283 
z
" style="fill:#006ba4;"/>
   </g>
   <g id="patch_19">
    <path clip-path="url(#p18a9eacdcb)" d="M 374.029412 378 
L 383.876471 378 
L 383.876471 364.594898 
L 374.029412 364.594898 
z
" style="fill:#006ba4;"/>
   </g>
   <g id="patch_20">
    <path clip-path="url(#p18a9eacdcb)" d="M 58.923529 378 
L 68.770588 378 
L 68.770588 378 
L 58.923529 378 
z
" style="fill:#ff800e;"/>
   </g>
   <g id="patch_21">
    <path clip-path="url(#p18a9eacdcb)" d="M 78.617647 70.049261 
L 88.464706 70.049261 
L 88.464706 68.442562 
L 78.617647 68.442562 
z
" style="fill:#ff800e;"/>
   </g>
   <g id="patch_22">
    <path clip-path="url(#p18a9eacdcb)" d="M 98.311765 69.742639 
L 108.158824 69.742639 
L 108.158824 68.557034 
L 98.311765 68.557034 
z
" style="fill:#ff800e;"/>
   </g>
   <g id="patch_23">
    <path clip-path="url(#p18a9eacdcb)" d="M 118.005882 375.504991 
L 127.852941 375.504991 
L 127.852941 374.881239 
L 118.005882 374.881239 
z
" style="fill:#ff800e;"/>
   </g>
   <g id="patch_24">
    <path clip-path="url(#p18a9eacdcb)" d="M 137.7 73.065231 
L 147.547059 73.065231 
L 147.547059 72.432587 
L 137.7 72.432587 
z
" style="fill:#ff800e;"/>
   </g>
   <g id="patch_25">
    <path clip-path="url(#p18a9eacdcb)" d="M 157.394118 78.148338 
L 167.241176 78.148338 
L 167.241176 77.514402 
L 157.394118 77.514402 
z
" style="fill:#ff800e;"/>
   </g>
   <g id="patch_26">
    <path clip-path="url(#p18a9eacdcb)" d="M 177.088235 261.514286 
L 186.935294 261.514286 
L 186.935294 248.852795 
L 177.088235 248.852795 
z
" style="fill:#ff800e;"/>
   </g>
   <g id="patch_27">
    <path clip-path="url(#p18a9eacdcb)" d="M 196.782353 225.616173 
L 206.629412 225.616173 
L 206.629412 190.450674 
L 196.782353 190.450674 
z
" style="fill:#ff800e;"/>
   </g>
   <g id="patch_28">
    <path clip-path="url(#p18a9eacdcb)" d="M 216.476471 251.314037 
L 226.323529 251.314037 
L 226.323529 201.721667 
L 216.476471 201.721667 
z
" style="fill:#ff800e;"/>
   </g>
   <g id="patch_29">
    <path clip-path="url(#p18a9eacdcb)" d="M 236.170588 247.736406 
L 246.017647 247.736406 
L 246.017647 204.649217 
L 236.170588 204.649217 
z
" style="fill:#ff800e;"/>
   </g>
   <g id="patch_30">
    <path clip-path="url(#p18a9eacdcb)" d="M 255.864706 378 
L 265.711765 378 
L 265.711765 378 
L 255.864706 378 
z
" style="fill:#ff800e;"/>
   </g>
   <g id="patch_31">
    <path clip-path="url(#p18a9eacdcb)" d="M 275.558824 261.840576 
L 285.405882 261.840576 
L 285.405882 252.704442 
L 275.558824 252.704442 
z
" style="fill:#ff800e;"/>
   </g>
   <g id="patch_32">
    <path clip-path="url(#p18a9eacdcb)" d="M 295.252941 361.523602 
L 305.1 361.523602 
L 305.1 247.158012 
L 295.252941 247.158012 
z
" style="fill:#ff800e;"/>
   </g>
   <g id="patch_33">
    <path clip-path="url(#p18a9eacdcb)" d="M 314.947059 313.057503 
L 324.794118 313.057503 
L 324.794118 289.584311 
L 314.947059 289.584311 
z
" style="fill:#ff800e;"/>
   </g>
   <g id="patch_34">
    <path clip-path="url(#p18a9eacdcb)" d="M 334.641176 344.718367 
L 344.488235 344.718367 
L 344.488235 330.598887 
L 334.641176 330.598887 
z
" style="fill:#ff800e;"/>
   </g>
   <g id="patch_35">
    <path clip-path="url(#p18a9eacdcb)" d="M 354.335294 365.321283 
L 364.182353 365.321283 
L 364.182353 360.038484 
L 354.335294 360.038484 
z
" style="fill:#ff800e;"/>
   </g>
   <g id="patch_36">
    <path clip-path="url(#p18a9eacdcb)" d="M 374.029412 364.594898 
L 383.876471 364.594898 
L 383.876471 362.283673 
L 374.029412 362.283673 
z
" style="fill:#ff800e;"/>
   </g>
   <g id="patch_37">
    <path clip-path="url(#p18a9eacdcb)" d="M 58.923529 378 
L 68.770588 378 
L 68.770588 378 
L 58.923529 378 
z
" style="fill:#ababab;"/>
   </g>
   <g id="patch_38">
    <path clip-path="url(#p18a9eacdcb)" d="M 78.617647 378 
L 88.464706 378 
L 88.464706 378 
L 78.617647 378 
z
" style="fill:#ababab;"/>
   </g>
   <g id="patch_39">
    <path clip-path="url(#p18a9eacdcb)" d="M 98.311765 378 
L 108.158824 378 
L 108.158824 378 
L 98.311765 378 
z
" style="fill:#ababab;"/>
   </g>
   <g id="patch_40">
    <path clip-path="url(#p18a9eacdcb)" d="M 118.005882 374.881239 
L 127.852941 374.881239 
L 127.852941 68.618933 
L 118.005882 68.618933 
z
" style="fill:#ababab;"/>
   </g>
   <g id="patch_41">
    <path clip-path="url(#p18a9eacdcb)" d="M 137.7 72.432587 
L 147.547059 72.432587 
L 147.547059 71.167297 
L 137.7 71.167297 
z
" style="fill:#ababab;"/>
   </g>
   <g id="patch_42">
    <path clip-path="url(#p18a9eacdcb)" d="M 157.394118 77.514402 
L 167.241176 77.514402 
L 167.241176 76.880466 
L 157.394118 76.880466 
z
" style="fill:#ababab;"/>
   </g>
   <g id="patch_43">
    <path clip-path="url(#p18a9eacdcb)" d="M 177.088235 248.852795 
L 186.935294 248.852795 
L 186.935294 182.168944 
L 177.088235 182.168944 
z
" style="fill:#ababab;"/>
   </g>
   <g id="patch_44">
    <path clip-path="url(#p18a9eacdcb)" d="M 196.782353 378 
L 206.629412 378 
L 206.629412 378 
L 196.782353 378 
z
" style="fill:#ababab;"/>
   </g>
   <g id="patch_45">
    <path clip-path="url(#p18a9eacdcb)" d="M 216.476471 378 
L 226.323529 378 
L 226.323529 378 
L 216.476471 378 
z
" style="fill:#ababab;"/>
   </g>
   <g id="patch_46">
    <path clip-path="url(#p18a9eacdcb)" d="M 236.170588 204.649217 
L 246.017647 204.649217 
L 246.017647 203.647189 
L 236.170588 203.647189 
z
" style="fill:#ababab;"/>
   </g>
   <g id="patch_47">
    <path clip-path="url(#p18a9eacdcb)" d="M 255.864706 378 
L 265.711765 378 
L 265.711765 378 
L 255.864706 378 
z
" style="fill:#ababab;"/>
   </g>
   <g id="patch_48">
    <path clip-path="url(#p18a9eacdcb)" d="M 275.558824 252.704442 
L 285.405882 252.704442 
L 285.405882 246.178631 
L 275.558824 246.178631 
z
" style="fill:#ababab;"/>
   </g>
   <g id="patch_49">
    <path clip-path="url(#p18a9eacdcb)" d="M 295.252941 378 
L 305.1 378 
L 305.1 378 
L 295.252941 378 
z
" style="fill:#ababab;"/>
   </g>
   <g id="patch_50">
    <path clip-path="url(#p18a9eacdcb)" d="M 314.947059 289.584311 
L 324.794118 289.584311 
L 324.794118 288.801871 
L 314.947059 288.801871 
z
" style="fill:#ababab;"/>
   </g>
   <g id="patch_51">
    <path clip-path="url(#p18a9eacdcb)" d="M 334.641176 378 
L 344.488235 378 
L 344.488235 378 
L 334.641176 378 
z
" style="fill:#ababab;"/>
   </g>
   <g id="patch_52">
    <path clip-path="url(#p18a9eacdcb)" d="M 354.335294 378 
L 364.182353 378 
L 364.182353 378 
L 354.335294 378 
z
" style="fill:#ababab;"/>
   </g>
   <g id="patch_53">
    <path clip-path="url(#p18a9eacdcb)" d="M 374.029412 378 
L 383.876471 378 
L 383.876471 378 
L 374.029412 378 
z
" style="fill:#ababab;"/>
   </g>
   <g id="patch_54">
    <path clip-path="url(#p18a9eacdcb)" d="M 58.923529 378 
L 68.770588 378 
L 68.770588 378 
L 58.923529 378 
z
" style="fill:#595959;"/>
   </g>
   <g id="patch_55">
    <path clip-path="url(#p18a9eacdcb)" d="M 78.617647 68.442562 
L 88.464706 68.442562 
L 88.464706 67.371429 
L 78.617647 67.371429 
z
" style="fill:#595959;"/>
   </g>
   <g id="patch_56">
    <path clip-path="url(#p18a9eacdcb)" d="M 98.311765 68.557034 
L 108.158824 68.557034 
L 108.158824 67.371429 
L 98.311765 67.371429 
z
" style="fill:#595959;"/>
   </g>
   <g id="patch_57">
    <path clip-path="url(#p18a9eacdcb)" d="M 118.005882 68.618933 
L 127.852941 68.618933 
L 127.852941 67.371429 
L 118.005882 67.371429 
z
" style="fill:#595959;"/>
   </g>
   <g id="patch_58">
    <path clip-path="url(#p18a9eacdcb)" d="M 137.7 71.167297 
L 147.547059 71.167297 
L 147.547059 67.371429 
L 137.7 67.371429 
z
" style="fill:#595959;"/>
   </g>
   <g id="patch_59">
    <path clip-path="url(#p18a9eacdcb)" d="M 157.394118 76.880466 
L 167.241176 76.880466 
L 167.241176 67.371429 
L 157.394118 67.371429 
z
" style="fill:#595959;"/>
   </g>
   <g id="patch_60">
    <path clip-path="url(#p18a9eacdcb)" d="M 177.088235 182.168944 
L 186.935294 182.168944 
L 186.935294 67.371429 
L 177.088235 67.371429 
z
" style="fill:#595959;"/>
   </g>
   <g id="patch_61">
    <path clip-path="url(#p18a9eacdcb)" d="M 196.782353 190.450674 
L 206.629412 190.450674 
L 206.629412 67.371429 
L 196.782353 67.371429 
z
" style="fill:#595959;"/>
   </g>
   <g id="patch_62">
    <path clip-path="url(#p18a9eacdcb)" d="M 216.476471 201.721667 
L 226.323529 201.721667 
L 226.323529 67.371429 
L 216.476471 67.371429 
z
" style="fill:#595959;"/>
   </g>
   <g id="patch_63">
    <path clip-path="url(#p18a9eacdcb)" d="M 236.170588 203.647189 
L 246.017647 203.647189 
L 246.017647 67.371429 
L 236.170588 67.371429 
z
" style="fill:#595959;"/>
   </g>
   <g id="patch_64">
    <path clip-path="url(#p18a9eacdcb)" d="M 255.864706 239.942857 
L 265.711765 239.942857 
L 265.711765 67.371429 
L 255.864706 67.371429 
z
" style="fill:#595959;"/>
   </g>
   <g id="patch_65">
    <path clip-path="url(#p18a9eacdcb)" d="M 275.558824 246.178631 
L 285.405882 246.178631 
L 285.405882 67.371429 
L 275.558824 67.371429 
z
" style="fill:#595959;"/>
   </g>
   <g id="patch_66">
    <path clip-path="url(#p18a9eacdcb)" d="M 295.252941 247.158012 
L 305.1 247.158012 
L 305.1 67.371429 
L 295.252941 67.371429 
z
" style="fill:#595959;"/>
   </g>
   <g id="patch_67">
    <path clip-path="url(#p18a9eacdcb)" d="M 314.947059 288.801871 
L 324.794118 288.801871 
L 324.794118 67.371429 
L 314.947059 67.371429 
z
" style="fill:#595959;"/>
   </g>
   <g id="patch_68">
    <path clip-path="url(#p18a9eacdcb)" d="M 334.641176 330.598887 
L 344.488235 330.598887 
L 344.488235 67.371429 
L 334.641176 67.371429 
z
" style="fill:#595959;"/>
   </g>
   <g id="patch_69">
    <path clip-path="url(#p18a9eacdcb)" d="M 354.335294 360.038484 
L 364.182353 360.038484 
L 364.182353 67.371429 
L 354.335294 67.371429 
z
" style="fill:#595959;"/>
   </g>
   <g id="patch_70">
    <path clip-path="url(#p18a9eacdcb)" d="M 374.029412 362.283673 
L 383.876471 362.283673 
L 383.876471 67.371429 
L 374.029412 67.371429 
z
" style="fill:#595959;"/>
   </g>
   <g id="matplotlib.axis_1">
    <g id="xtick_1">
     <g id="line2d_1">
      <path clip-path="url(#p18a9eacdcb)" d="M 63.847059 378 
L 63.847059 51.84 
" style="fill:none;stroke:#b0b0b0;stroke-linecap:square;stroke-width:0.8;"/>
     </g>
     <g id="line2d_2">
      <defs>
       <path d="M 0 0 
L 0 3.5 
" id="m7c3ebaeb34" style="stroke:#000000;stroke-width:0.8;"/>
      </defs>
      <g>
       <use style="stroke:#000000;stroke-width:0.8;" x="63.847059" xlink:href="#m7c3ebaeb34" y="378"/>
      </g>
     </g>
     <g id="text_1">
      <!-- 0 -->
      <defs>
       <path d="M 31.78125 66.40625 
Q 24.171875 66.40625 20.328125 58.90625 
Q 16.5 51.421875 16.5 36.375 
Q 16.5 21.390625 20.328125 13.890625 
Q 24.171875 6.390625 31.78125 6.390625 
Q 39.453125 6.390625 43.28125 13.890625 
Q 47.125 21.390625 47.125 36.375 
Q 47.125 51.421875 43.28125 58.90625 
Q 39.453125 66.40625 31.78125 66.40625 
z
M 31.78125 74.21875 
Q 44.046875 74.21875 50.515625 64.515625 
Q 56.984375 54.828125 56.984375 36.375 
Q 56.984375 17.96875 50.515625 8.265625 
Q 44.046875 -1.421875 31.78125 -1.421875 
Q 19.53125 -1.421875 13.0625 8.265625 
Q 6.59375 17.96875 6.59375 36.375 
Q 6.59375 54.828125 13.0625 64.515625 
Q 19.53125 74.21875 31.78125 74.21875 
z
" id="DejaVuSans-48"/>
      </defs>
      <g transform="translate(66.606434 391.3625)rotate(-90)scale(0.1 -0.1)">
       <use xlink:href="#DejaVuSans-48"/>
      </g>
     </g>
    </g>
    <g id="xtick_2">
     <g id="line2d_3">
      <path clip-path="url(#p18a9eacdcb)" d="M 83.541176 378 
L 83.541176 51.84 
" style="fill:none;stroke:#b0b0b0;stroke-linecap:square;stroke-width:0.8;"/>
     </g>
     <g id="line2d_4">
      <g>
       <use style="stroke:#000000;stroke-width:0.8;" x="83.541176" xlink:href="#m7c3ebaeb34" y="378"/>
      </g>
     </g>
     <g id="text_2">
      <!-- 1 -->
      <defs>
       <path d="M 12.40625 8.296875 
L 28.515625 8.296875 
L 28.515625 63.921875 
L 10.984375 60.40625 
L 10.984375 69.390625 
L 28.421875 72.90625 
L 38.28125 72.90625 
L 38.28125 8.296875 
L 54.390625 8.296875 
L 54.390625 0 
L 12.40625 0 
z
" id="DejaVuSans-49"/>
      </defs>
      <g transform="translate(86.300551 391.3625)rotate(-90)scale(0.1 -0.1)">
       <use xlink:href="#DejaVuSans-49"/>
      </g>
     </g>
    </g>
    <g id="xtick_3">
     <g id="line2d_5">
      <path clip-path="url(#p18a9eacdcb)" d="M 103.235294 378 
L 103.235294 51.84 
" style="fill:none;stroke:#b0b0b0;stroke-linecap:square;stroke-width:0.8;"/>
     </g>
     <g id="line2d_6">
      <g>
       <use style="stroke:#000000;stroke-width:0.8;" x="103.235294" xlink:href="#m7c3ebaeb34" y="378"/>
      </g>
     </g>
     <g id="text_3">
      <!-- 2 -->
      <defs>
       <path d="M 19.1875 8.296875 
L 53.609375 8.296875 
L 53.609375 0 
L 7.328125 0 
L 7.328125 8.296875 
Q 12.9375 14.109375 22.625 23.890625 
Q 32.328125 33.6875 34.8125 36.53125 
Q 39.546875 41.84375 41.421875 45.53125 
Q 43.3125 49.21875 43.3125 52.78125 
Q 43.3125 58.59375 39.234375 62.25 
Q 35.15625 65.921875 28.609375 65.921875 
Q 23.96875 65.921875 18.8125 64.3125 
Q 13.671875 62.703125 7.8125 59.421875 
L 7.8125 69.390625 
Q 13.765625 71.78125 18.9375 73 
Q 24.125 74.21875 28.421875 74.21875 
Q 39.75 74.21875 46.484375 68.546875 
Q 53.21875 62.890625 53.21875 53.421875 
Q 53.21875 48.921875 51.53125 44.890625 
Q 49.859375 40.875 45.40625 35.40625 
Q 44.1875 33.984375 37.640625 27.21875 
Q 31.109375 20.453125 19.1875 8.296875 
z
" id="DejaVuSans-50"/>
      </defs>
      <g transform="translate(105.994669 391.3625)rotate(-90)scale(0.1 -0.1)">
       <use xlink:href="#DejaVuSans-50"/>
      </g>
     </g>
    </g>
    <g id="xtick_4">
     <g id="line2d_7">
      <path clip-path="url(#p18a9eacdcb)" d="M 122.929412 378 
L 122.929412 51.84 
" style="fill:none;stroke:#b0b0b0;stroke-linecap:square;stroke-width:0.8;"/>
     </g>
     <g id="line2d_8">
      <g>
       <use style="stroke:#000000;stroke-width:0.8;" x="122.929412" xlink:href="#m7c3ebaeb34" y="378"/>
      </g>
     </g>
     <g id="text_4">
      <!-- 3 -->
      <defs>
       <path d="M 40.578125 39.3125 
Q 47.65625 37.796875 51.625 33 
Q 55.609375 28.21875 55.609375 21.1875 
Q 55.609375 10.40625 48.1875 4.484375 
Q 40.765625 -1.421875 27.09375 -1.421875 
Q 22.515625 -1.421875 17.65625 -0.515625 
Q 12.796875 0.390625 7.625 2.203125 
L 7.625 11.71875 
Q 11.71875 9.328125 16.59375 8.109375 
Q 21.484375 6.890625 26.8125 6.890625 
Q 36.078125 6.890625 40.9375 10.546875 
Q 45.796875 14.203125 45.796875 21.1875 
Q 45.796875 27.640625 41.28125 31.265625 
Q 36.765625 34.90625 28.71875 34.90625 
L 20.21875 34.90625 
L 20.21875 43.015625 
L 29.109375 43.015625 
Q 36.375 43.015625 40.234375 45.921875 
Q 44.09375 48.828125 44.09375 54.296875 
Q 44.09375 59.90625 40.109375 62.90625 
Q 36.140625 65.921875 28.71875 65.921875 
Q 24.65625 65.921875 20.015625 65.03125 
Q 15.375 64.15625 9.8125 62.3125 
L 9.8125 71.09375 
Q 15.4375 72.65625 20.34375 73.4375 
Q 25.25 74.21875 29.59375 74.21875 
Q 40.828125 74.21875 47.359375 69.109375 
Q 53.90625 64.015625 53.90625 55.328125 
Q 53.90625 49.265625 50.4375 45.09375 
Q 46.96875 40.921875 40.578125 39.3125 
z
" id="DejaVuSans-51"/>
      </defs>
      <g transform="translate(125.688787 391.3625)rotate(-90)scale(0.1 -0.1)">
       <use xlink:href="#DejaVuSans-51"/>
      </g>
     </g>
    </g>
    <g id="xtick_5">
     <g id="line2d_9">
      <path clip-path="url(#p18a9eacdcb)" d="M 142.623529 378 
L 142.623529 51.84 
" style="fill:none;stroke:#b0b0b0;stroke-linecap:square;stroke-width:0.8;"/>
     </g>
     <g id="line2d_10">
      <g>
       <use style="stroke:#000000;stroke-width:0.8;" x="142.623529" xlink:href="#m7c3ebaeb34" y="378"/>
      </g>
     </g>
     <g id="text_5">
      <!-- 4 -->
      <defs>
       <path d="M 37.796875 64.3125 
L 12.890625 25.390625 
L 37.796875 25.390625 
z
M 35.203125 72.90625 
L 47.609375 72.90625 
L 47.609375 25.390625 
L 58.015625 25.390625 
L 58.015625 17.1875 
L 47.609375 17.1875 
L 47.609375 0 
L 37.796875 0 
L 37.796875 17.1875 
L 4.890625 17.1875 
L 4.890625 26.703125 
z
" id="DejaVuSans-52"/>
      </defs>
      <g transform="translate(145.382904 391.3625)rotate(-90)scale(0.1 -0.1)">
       <use xlink:href="#DejaVuSans-52"/>
      </g>
     </g>
    </g>
    <g id="xtick_6">
     <g id="line2d_11">
      <path clip-path="url(#p18a9eacdcb)" d="M 162.317647 378 
L 162.317647 51.84 
" style="fill:none;stroke:#b0b0b0;stroke-linecap:square;stroke-width:0.8;"/>
     </g>
     <g id="line2d_12">
      <g>
       <use style="stroke:#000000;stroke-width:0.8;" x="162.317647" xlink:href="#m7c3ebaeb34" y="378"/>
      </g>
     </g>
     <g id="text_6">
      <!-- 5 -->
      <defs>
       <path d="M 10.796875 72.90625 
L 49.515625 72.90625 
L 49.515625 64.59375 
L 19.828125 64.59375 
L 19.828125 46.734375 
Q 21.96875 47.46875 24.109375 47.828125 
Q 26.265625 48.1875 28.421875 48.1875 
Q 40.625 48.1875 47.75 41.5 
Q 54.890625 34.8125 54.890625 23.390625 
Q 54.890625 11.625 47.5625 5.09375 
Q 40.234375 -1.421875 26.90625 -1.421875 
Q 22.3125 -1.421875 17.546875 -0.640625 
Q 12.796875 0.140625 7.71875 1.703125 
L 7.71875 11.625 
Q 12.109375 9.234375 16.796875 8.0625 
Q 21.484375 6.890625 26.703125 6.890625 
Q 35.15625 6.890625 40.078125 11.328125 
Q 45.015625 15.765625 45.015625 23.390625 
Q 45.015625 31 40.078125 35.4375 
Q 35.15625 39.890625 26.703125 39.890625 
Q 22.75 39.890625 18.8125 39.015625 
Q 14.890625 38.140625 10.796875 36.28125 
z
" id="DejaVuSans-53"/>
      </defs>
      <g transform="translate(165.077022 391.3625)rotate(-90)scale(0.1 -0.1)">
       <use xlink:href="#DejaVuSans-53"/>
      </g>
     </g>
    </g>
    <g id="xtick_7">
     <g id="line2d_13">
      <path clip-path="url(#p18a9eacdcb)" d="M 182.011765 378 
L 182.011765 51.84 
" style="fill:none;stroke:#b0b0b0;stroke-linecap:square;stroke-width:0.8;"/>
     </g>
     <g id="line2d_14">
      <g>
       <use style="stroke:#000000;stroke-width:0.8;" x="182.011765" xlink:href="#m7c3ebaeb34" y="378"/>
      </g>
     </g>
     <g id="text_7">
      <!-- 6 -->
      <defs>
       <path d="M 33.015625 40.375 
Q 26.375 40.375 22.484375 35.828125 
Q 18.609375 31.296875 18.609375 23.390625 
Q 18.609375 15.53125 22.484375 10.953125 
Q 26.375 6.390625 33.015625 6.390625 
Q 39.65625 6.390625 43.53125 10.953125 
Q 47.40625 15.53125 47.40625 23.390625 
Q 47.40625 31.296875 43.53125 35.828125 
Q 39.65625 40.375 33.015625 40.375 
z
M 52.59375 71.296875 
L 52.59375 62.3125 
Q 48.875 64.0625 45.09375 64.984375 
Q 41.3125 65.921875 37.59375 65.921875 
Q 27.828125 65.921875 22.671875 59.328125 
Q 17.53125 52.734375 16.796875 39.40625 
Q 19.671875 43.65625 24.015625 45.921875 
Q 28.375 48.1875 33.59375 48.1875 
Q 44.578125 48.1875 50.953125 41.515625 
Q 57.328125 34.859375 57.328125 23.390625 
Q 57.328125 12.15625 50.6875 5.359375 
Q 44.046875 -1.421875 33.015625 -1.421875 
Q 20.359375 -1.421875 13.671875 8.265625 
Q 6.984375 17.96875 6.984375 36.375 
Q 6.984375 53.65625 15.1875 63.9375 
Q 23.390625 74.21875 37.203125 74.21875 
Q 40.921875 74.21875 44.703125 73.484375 
Q 48.484375 72.75 52.59375 71.296875 
z
" id="DejaVuSans-54"/>
      </defs>
      <g transform="translate(184.77114 391.3625)rotate(-90)scale(0.1 -0.1)">
       <use xlink:href="#DejaVuSans-54"/>
      </g>
     </g>
    </g>
    <g id="xtick_8">
     <g id="line2d_15">
      <path clip-path="url(#p18a9eacdcb)" d="M 201.705882 378 
L 201.705882 51.84 
" style="fill:none;stroke:#b0b0b0;stroke-linecap:square;stroke-width:0.8;"/>
     </g>
     <g id="line2d_16">
      <g>
       <use style="stroke:#000000;stroke-width:0.8;" x="201.705882" xlink:href="#m7c3ebaeb34" y="378"/>
      </g>
     </g>
     <g id="text_8">
      <!-- 7 -->
      <defs>
       <path d="M 8.203125 72.90625 
L 55.078125 72.90625 
L 55.078125 68.703125 
L 28.609375 0 
L 18.3125 0 
L 43.21875 64.59375 
L 8.203125 64.59375 
z
" id="DejaVuSans-55"/>
      </defs>
      <g transform="translate(204.465257 391.3625)rotate(-90)scale(0.1 -0.1)">
       <use xlink:href="#DejaVuSans-55"/>
      </g>
     </g>
    </g>
    <g id="xtick_9">
     <g id="line2d_17">
      <path clip-path="url(#p18a9eacdcb)" d="M 221.4 378 
L 221.4 51.84 
" style="fill:none;stroke:#b0b0b0;stroke-linecap:square;stroke-width:0.8;"/>
     </g>
     <g id="line2d_18">
      <g>
       <use style="stroke:#000000;stroke-width:0.8;" x="221.4" xlink:href="#m7c3ebaeb34" y="378"/>
      </g>
     </g>
     <g id="text_9">
      <!-- 8 -->
      <defs>
       <path d="M 31.78125 34.625 
Q 24.75 34.625 20.71875 30.859375 
Q 16.703125 27.09375 16.703125 20.515625 
Q 16.703125 13.921875 20.71875 10.15625 
Q 24.75 6.390625 31.78125 6.390625 
Q 38.8125 6.390625 42.859375 10.171875 
Q 46.921875 13.96875 46.921875 20.515625 
Q 46.921875 27.09375 42.890625 30.859375 
Q 38.875 34.625 31.78125 34.625 
z
M 21.921875 38.8125 
Q 15.578125 40.375 12.03125 44.71875 
Q 8.5 49.078125 8.5 55.328125 
Q 8.5 64.0625 14.71875 69.140625 
Q 20.953125 74.21875 31.78125 74.21875 
Q 42.671875 74.21875 48.875 69.140625 
Q 55.078125 64.0625 55.078125 55.328125 
Q 55.078125 49.078125 51.53125 44.71875 
Q 48 40.375 41.703125 38.8125 
Q 48.828125 37.15625 52.796875 32.3125 
Q 56.78125 27.484375 56.78125 20.515625 
Q 56.78125 9.90625 50.3125 4.234375 
Q 43.84375 -1.421875 31.78125 -1.421875 
Q 19.734375 -1.421875 13.25 4.234375 
Q 6.78125 9.90625 6.78125 20.515625 
Q 6.78125 27.484375 10.78125 32.3125 
Q 14.796875 37.15625 21.921875 38.8125 
z
M 18.3125 54.390625 
Q 18.3125 48.734375 21.84375 45.5625 
Q 25.390625 42.390625 31.78125 42.390625 
Q 38.140625 42.390625 41.71875 45.5625 
Q 45.3125 48.734375 45.3125 54.390625 
Q 45.3125 60.0625 41.71875 63.234375 
Q 38.140625 66.40625 31.78125 66.40625 
Q 25.390625 66.40625 21.84375 63.234375 
Q 18.3125 60.0625 18.3125 54.390625 
z
" id="DejaVuSans-56"/>
      </defs>
      <g transform="translate(224.159375 391.3625)rotate(-90)scale(0.1 -0.1)">
       <use xlink:href="#DejaVuSans-56"/>
      </g>
     </g>
    </g>
    <g id="xtick_10">
     <g id="line2d_19">
      <path clip-path="url(#p18a9eacdcb)" d="M 241.094118 378 
L 241.094118 51.84 
" style="fill:none;stroke:#b0b0b0;stroke-linecap:square;stroke-width:0.8;"/>
     </g>
     <g id="line2d_20">
      <g>
       <use style="stroke:#000000;stroke-width:0.8;" x="241.094118" xlink:href="#m7c3ebaeb34" y="378"/>
      </g>
     </g>
     <g id="text_10">
      <!-- 9 -->
      <defs>
       <path d="M 10.984375 1.515625 
L 10.984375 10.5 
Q 14.703125 8.734375 18.5 7.8125 
Q 22.3125 6.890625 25.984375 6.890625 
Q 35.75 6.890625 40.890625 13.453125 
Q 46.046875 20.015625 46.78125 33.40625 
Q 43.953125 29.203125 39.59375 26.953125 
Q 35.25 24.703125 29.984375 24.703125 
Q 19.046875 24.703125 12.671875 31.3125 
Q 6.296875 37.9375 6.296875 49.421875 
Q 6.296875 60.640625 12.9375 67.421875 
Q 19.578125 74.21875 30.609375 74.21875 
Q 43.265625 74.21875 49.921875 64.515625 
Q 56.59375 54.828125 56.59375 36.375 
Q 56.59375 19.140625 48.40625 8.859375 
Q 40.234375 -1.421875 26.421875 -1.421875 
Q 22.703125 -1.421875 18.890625 -0.6875 
Q 15.09375 0.046875 10.984375 1.515625 
z
M 30.609375 32.421875 
Q 37.25 32.421875 41.125 36.953125 
Q 45.015625 41.5 45.015625 49.421875 
Q 45.015625 57.28125 41.125 61.84375 
Q 37.25 66.40625 30.609375 66.40625 
Q 23.96875 66.40625 20.09375 61.84375 
Q 16.21875 57.28125 16.21875 49.421875 
Q 16.21875 41.5 20.09375 36.953125 
Q 23.96875 32.421875 30.609375 32.421875 
z
" id="DejaVuSans-57"/>
      </defs>
      <g transform="translate(243.853493 391.3625)rotate(-90)scale(0.1 -0.1)">
       <use xlink:href="#DejaVuSans-57"/>
      </g>
     </g>
    </g>
    <g id="xtick_11">
     <g id="line2d_21">
      <path clip-path="url(#p18a9eacdcb)" d="M 260.788235 378 
L 260.788235 51.84 
" style="fill:none;stroke:#b0b0b0;stroke-linecap:square;stroke-width:0.8;"/>
     </g>
     <g id="line2d_22">
      <g>
       <use style="stroke:#000000;stroke-width:0.8;" x="260.788235" xlink:href="#m7c3ebaeb34" y="378"/>
      </g>
     </g>
     <g id="text_11">
      <!-- 10 -->
      <g transform="translate(263.54761 397.725)rotate(-90)scale(0.1 -0.1)">
       <use xlink:href="#DejaVuSans-49"/>
       <use x="63.623047" xlink:href="#DejaVuSans-48"/>
      </g>
     </g>
    </g>
    <g id="xtick_12">
     <g id="line2d_23">
      <path clip-path="url(#p18a9eacdcb)" d="M 280.482353 378 
L 280.482353 51.84 
" style="fill:none;stroke:#b0b0b0;stroke-linecap:square;stroke-width:0.8;"/>
     </g>
     <g id="line2d_24">
      <g>
       <use style="stroke:#000000;stroke-width:0.8;" x="280.482353" xlink:href="#m7c3ebaeb34" y="378"/>
      </g>
     </g>
     <g id="text_12">
      <!-- 11 -->
      <g transform="translate(283.241728 397.725)rotate(-90)scale(0.1 -0.1)">
       <use xlink:href="#DejaVuSans-49"/>
       <use x="63.623047" xlink:href="#DejaVuSans-49"/>
      </g>
     </g>
    </g>
    <g id="xtick_13">
     <g id="line2d_25">
      <path clip-path="url(#p18a9eacdcb)" d="M 300.176471 378 
L 300.176471 51.84 
" style="fill:none;stroke:#b0b0b0;stroke-linecap:square;stroke-width:0.8;"/>
     </g>
     <g id="line2d_26">
      <g>
       <use style="stroke:#000000;stroke-width:0.8;" x="300.176471" xlink:href="#m7c3ebaeb34" y="378"/>
      </g>
     </g>
     <g id="text_13">
      <!-- 12 -->
      <g transform="translate(302.935846 397.725)rotate(-90)scale(0.1 -0.1)">
       <use xlink:href="#DejaVuSans-49"/>
       <use x="63.623047" xlink:href="#DejaVuSans-50"/>
      </g>
     </g>
    </g>
    <g id="xtick_14">
     <g id="line2d_27">
      <path clip-path="url(#p18a9eacdcb)" d="M 319.870588 378 
L 319.870588 51.84 
" style="fill:none;stroke:#b0b0b0;stroke-linecap:square;stroke-width:0.8;"/>
     </g>
     <g id="line2d_28">
      <g>
       <use style="stroke:#000000;stroke-width:0.8;" x="319.870588" xlink:href="#m7c3ebaeb34" y="378"/>
      </g>
     </g>
     <g id="text_14">
      <!-- 13 -->
      <g transform="translate(322.629963 397.725)rotate(-90)scale(0.1 -0.1)">
       <use xlink:href="#DejaVuSans-49"/>
       <use x="63.623047" xlink:href="#DejaVuSans-51"/>
      </g>
     </g>
    </g>
    <g id="xtick_15">
     <g id="line2d_29">
      <path clip-path="url(#p18a9eacdcb)" d="M 339.564706 378 
L 339.564706 51.84 
" style="fill:none;stroke:#b0b0b0;stroke-linecap:square;stroke-width:0.8;"/>
     </g>
     <g id="line2d_30">
      <g>
       <use style="stroke:#000000;stroke-width:0.8;" x="339.564706" xlink:href="#m7c3ebaeb34" y="378"/>
      </g>
     </g>
     <g id="text_15">
      <!-- 14 -->
      <g transform="translate(342.324081 397.725)rotate(-90)scale(0.1 -0.1)">
       <use xlink:href="#DejaVuSans-49"/>
       <use x="63.623047" xlink:href="#DejaVuSans-52"/>
      </g>
     </g>
    </g>
    <g id="xtick_16">
     <g id="line2d_31">
      <path clip-path="url(#p18a9eacdcb)" d="M 359.258824 378 
L 359.258824 51.84 
" style="fill:none;stroke:#b0b0b0;stroke-linecap:square;stroke-width:0.8;"/>
     </g>
     <g id="line2d_32">
      <g>
       <use style="stroke:#000000;stroke-width:0.8;" x="359.258824" xlink:href="#m7c3ebaeb34" y="378"/>
      </g>
     </g>
     <g id="text_16">
      <!-- 15 -->
      <g transform="translate(362.018199 397.725)rotate(-90)scale(0.1 -0.1)">
       <use xlink:href="#DejaVuSans-49"/>
       <use x="63.623047" xlink:href="#DejaVuSans-53"/>
      </g>
     </g>
    </g>
    <g id="xtick_17">
     <g id="line2d_33">
      <path clip-path="url(#p18a9eacdcb)" d="M 378.952941 378 
L 378.952941 51.84 
" style="fill:none;stroke:#b0b0b0;stroke-linecap:square;stroke-width:0.8;"/>
     </g>
     <g id="line2d_34">
      <g>
       <use style="stroke:#000000;stroke-width:0.8;" x="378.952941" xlink:href="#m7c3ebaeb34" y="378"/>
      </g>
     </g>
     <g id="text_17">
      <!-- 16 -->
      <g transform="translate(381.712316 397.725)rotate(-90)scale(0.1 -0.1)">
       <use xlink:href="#DejaVuSans-49"/>
       <use x="63.623047" xlink:href="#DejaVuSans-54"/>
      </g>
     </g>
    </g>
    <g id="text_18">
     <!-- sorted_leiden -->
     <defs>
      <path d="M 44.28125 53.078125 
L 44.28125 44.578125 
Q 40.484375 46.53125 36.375 47.5 
Q 32.28125 48.484375 27.875 48.484375 
Q 21.1875 48.484375 17.84375 46.4375 
Q 14.5 44.390625 14.5 40.28125 
Q 14.5 37.15625 16.890625 35.375 
Q 19.28125 33.59375 26.515625 31.984375 
L 29.59375 31.296875 
Q 39.15625 29.25 43.1875 25.515625 
Q 47.21875 21.78125 47.21875 15.09375 
Q 47.21875 7.46875 41.1875 3.015625 
Q 35.15625 -1.421875 24.609375 -1.421875 
Q 20.21875 -1.421875 15.453125 -0.5625 
Q 10.6875 0.296875 5.421875 2 
L 5.421875 11.28125 
Q 10.40625 8.6875 15.234375 7.390625 
Q 20.0625 6.109375 24.8125 6.109375 
Q 31.15625 6.109375 34.5625 8.28125 
Q 37.984375 10.453125 37.984375 14.40625 
Q 37.984375 18.0625 35.515625 20.015625 
Q 33.0625 21.96875 24.703125 23.78125 
L 21.578125 24.515625 
Q 13.234375 26.265625 9.515625 29.90625 
Q 5.8125 33.546875 5.8125 39.890625 
Q 5.8125 47.609375 11.28125 51.796875 
Q 16.75 56 26.8125 56 
Q 31.78125 56 36.171875 55.265625 
Q 40.578125 54.546875 44.28125 53.078125 
z
" id="DejaVuSans-115"/>
      <path d="M 30.609375 48.390625 
Q 23.390625 48.390625 19.1875 42.75 
Q 14.984375 37.109375 14.984375 27.296875 
Q 14.984375 17.484375 19.15625 11.84375 
Q 23.34375 6.203125 30.609375 6.203125 
Q 37.796875 6.203125 41.984375 11.859375 
Q 46.1875 17.53125 46.1875 27.296875 
Q 46.1875 37.015625 41.984375 42.703125 
Q 37.796875 48.390625 30.609375 48.390625 
z
M 30.609375 56 
Q 42.328125 56 49.015625 48.375 
Q 55.71875 40.765625 55.71875 27.296875 
Q 55.71875 13.875 49.015625 6.21875 
Q 42.328125 -1.421875 30.609375 -1.421875 
Q 18.84375 -1.421875 12.171875 6.21875 
Q 5.515625 13.875 5.515625 27.296875 
Q 5.515625 40.765625 12.171875 48.375 
Q 18.84375 56 30.609375 56 
z
" id="DejaVuSans-111"/>
      <path d="M 41.109375 46.296875 
Q 39.59375 47.171875 37.8125 47.578125 
Q 36.03125 48 33.890625 48 
Q 26.265625 48 22.1875 43.046875 
Q 18.109375 38.09375 18.109375 28.8125 
L 18.109375 0 
L 9.078125 0 
L 9.078125 54.6875 
L 18.109375 54.6875 
L 18.109375 46.1875 
Q 20.953125 51.171875 25.484375 53.578125 
Q 30.03125 56 36.53125 56 
Q 37.453125 56 38.578125 55.875 
Q 39.703125 55.765625 41.0625 55.515625 
z
" id="DejaVuSans-114"/>
      <path d="M 18.3125 70.21875 
L 18.3125 54.6875 
L 36.8125 54.6875 
L 36.8125 47.703125 
L 18.3125 47.703125 
L 18.3125 18.015625 
Q 18.3125 11.328125 20.140625 9.421875 
Q 21.96875 7.515625 27.59375 7.515625 
L 36.8125 7.515625 
L 36.8125 0 
L 27.59375 0 
Q 17.1875 0 13.234375 3.875 
Q 9.28125 7.765625 9.28125 18.015625 
L 9.28125 47.703125 
L 2.6875 47.703125 
L 2.6875 54.6875 
L 9.28125 54.6875 
L 9.28125 70.21875 
z
" id="DejaVuSans-116"/>
      <path d="M 56.203125 29.59375 
L 56.203125 25.203125 
L 14.890625 25.203125 
Q 15.484375 15.921875 20.484375 11.0625 
Q 25.484375 6.203125 34.421875 6.203125 
Q 39.59375 6.203125 44.453125 7.46875 
Q 49.3125 8.734375 54.109375 11.28125 
L 54.109375 2.78125 
Q 49.265625 0.734375 44.1875 -0.34375 
Q 39.109375 -1.421875 33.890625 -1.421875 
Q 20.796875 -1.421875 13.15625 6.1875 
Q 5.515625 13.8125 5.515625 26.8125 
Q 5.515625 40.234375 12.765625 48.109375 
Q 20.015625 56 32.328125 56 
Q 43.359375 56 49.78125 48.890625 
Q 56.203125 41.796875 56.203125 29.59375 
z
M 47.21875 32.234375 
Q 47.125 39.59375 43.09375 43.984375 
Q 39.0625 48.390625 32.421875 48.390625 
Q 24.90625 48.390625 20.390625 44.140625 
Q 15.875 39.890625 15.1875 32.171875 
z
" id="DejaVuSans-101"/>
      <path d="M 45.40625 46.390625 
L 45.40625 75.984375 
L 54.390625 75.984375 
L 54.390625 0 
L 45.40625 0 
L 45.40625 8.203125 
Q 42.578125 3.328125 38.25 0.953125 
Q 33.9375 -1.421875 27.875 -1.421875 
Q 17.96875 -1.421875 11.734375 6.484375 
Q 5.515625 14.40625 5.515625 27.296875 
Q 5.515625 40.1875 11.734375 48.09375 
Q 17.96875 56 27.875 56 
Q 33.9375 56 38.25 53.625 
Q 42.578125 51.265625 45.40625 46.390625 
z
M 14.796875 27.296875 
Q 14.796875 17.390625 18.875 11.75 
Q 22.953125 6.109375 30.078125 6.109375 
Q 37.203125 6.109375 41.296875 11.75 
Q 45.40625 17.390625 45.40625 27.296875 
Q 45.40625 37.203125 41.296875 42.84375 
Q 37.203125 48.484375 30.078125 48.484375 
Q 22.953125 48.484375 18.875 42.84375 
Q 14.796875 37.203125 14.796875 27.296875 
z
" id="DejaVuSans-100"/>
      <path d="M 50.984375 -16.609375 
L 50.984375 -23.578125 
L -0.984375 -23.578125 
L -0.984375 -16.609375 
z
" id="DejaVuSans-95"/>
      <path d="M 9.421875 75.984375 
L 18.40625 75.984375 
L 18.40625 0 
L 9.421875 0 
z
" id="DejaVuSans-108"/>
      <path d="M 9.421875 54.6875 
L 18.40625 54.6875 
L 18.40625 0 
L 9.421875 0 
z
M 9.421875 75.984375 
L 18.40625 75.984375 
L 18.40625 64.59375 
L 9.421875 64.59375 
z
" id="DejaVuSans-105"/>
      <path d="M 54.890625 33.015625 
L 54.890625 0 
L 45.90625 0 
L 45.90625 32.71875 
Q 45.90625 40.484375 42.875 44.328125 
Q 39.84375 48.1875 33.796875 48.1875 
Q 26.515625 48.1875 22.3125 43.546875 
Q 18.109375 38.921875 18.109375 30.90625 
L 18.109375 0 
L 9.078125 0 
L 9.078125 54.6875 
L 18.109375 54.6875 
L 18.109375 46.1875 
Q 21.34375 51.125 25.703125 53.5625 
Q 30.078125 56 35.796875 56 
Q 45.21875 56 50.046875 50.171875 
Q 54.890625 44.34375 54.890625 33.015625 
z
" id="DejaVuSans-110"/>
     </defs>
     <g transform="translate(187.695312 409.323438)scale(0.1 -0.1)">
      <use xlink:href="#DejaVuSans-115"/>
      <use x="52.099609" xlink:href="#DejaVuSans-111"/>
      <use x="113.28125" xlink:href="#DejaVuSans-114"/>
      <use x="154.394531" xlink:href="#DejaVuSans-116"/>
      <use x="193.603516" xlink:href="#DejaVuSans-101"/>
      <use x="255.126953" xlink:href="#DejaVuSans-100"/>
      <use x="318.603516" xlink:href="#DejaVuSans-95"/>
      <use x="368.603516" xlink:href="#DejaVuSans-108"/>
      <use x="396.386719" xlink:href="#DejaVuSans-101"/>
      <use x="457.910156" xlink:href="#DejaVuSans-105"/>
      <use x="485.693359" xlink:href="#DejaVuSans-100"/>
      <use x="549.169922" xlink:href="#DejaVuSans-101"/>
      <use x="610.693359" xlink:href="#DejaVuSans-110"/>
     </g>
    </g>
   </g>
   <g id="matplotlib.axis_2">
    <g id="ytick_1">
     <g id="line2d_35">
      <path clip-path="url(#p18a9eacdcb)" d="M 54 378 
L 388.8 378 
" style="fill:none;stroke:#b0b0b0;stroke-linecap:square;stroke-width:0.8;"/>
     </g>
     <g id="line2d_36">
      <defs>
       <path d="M 0 0 
L -3.5 0 
" id="m88576e49ab" style="stroke:#000000;stroke-width:0.8;"/>
      </defs>
      <g>
       <use style="stroke:#000000;stroke-width:0.8;" x="54" xlink:href="#m88576e49ab" y="378"/>
      </g>
     </g>
     <g id="text_19">
      <!-- 0.0 -->
      <defs>
       <path d="M 10.6875 12.40625 
L 21 12.40625 
L 21 0 
L 10.6875 0 
z
" id="DejaVuSans-46"/>
      </defs>
      <g transform="translate(31.096875 381.799219)scale(0.1 -0.1)">
       <use xlink:href="#DejaVuSans-48"/>
       <use x="63.623047" xlink:href="#DejaVuSans-46"/>
       <use x="95.410156" xlink:href="#DejaVuSans-48"/>
      </g>
     </g>
    </g>
    <g id="ytick_2">
     <g id="line2d_37">
      <path clip-path="url(#p18a9eacdcb)" d="M 54 315.874286 
L 388.8 315.874286 
" style="fill:none;stroke:#b0b0b0;stroke-linecap:square;stroke-width:0.8;"/>
     </g>
     <g id="line2d_38">
      <g>
       <use style="stroke:#000000;stroke-width:0.8;" x="54" xlink:href="#m88576e49ab" y="315.874286"/>
      </g>
     </g>
     <g id="text_20">
      <!-- 0.2 -->
      <g transform="translate(31.096875 319.673504)scale(0.1 -0.1)">
       <use xlink:href="#DejaVuSans-48"/>
       <use x="63.623047" xlink:href="#DejaVuSans-46"/>
       <use x="95.410156" xlink:href="#DejaVuSans-50"/>
      </g>
     </g>
    </g>
    <g id="ytick_3">
     <g id="line2d_39">
      <path clip-path="url(#p18a9eacdcb)" d="M 54 253.748571 
L 388.8 253.748571 
" style="fill:none;stroke:#b0b0b0;stroke-linecap:square;stroke-width:0.8;"/>
     </g>
     <g id="line2d_40">
      <g>
       <use style="stroke:#000000;stroke-width:0.8;" x="54" xlink:href="#m88576e49ab" y="253.748571"/>
      </g>
     </g>
     <g id="text_21">
      <!-- 0.4 -->
      <g transform="translate(31.096875 257.54779)scale(0.1 -0.1)">
       <use xlink:href="#DejaVuSans-48"/>
       <use x="63.623047" xlink:href="#DejaVuSans-46"/>
       <use x="95.410156" xlink:href="#DejaVuSans-52"/>
      </g>
     </g>
    </g>
    <g id="ytick_4">
     <g id="line2d_41">
      <path clip-path="url(#p18a9eacdcb)" d="M 54 191.622857 
L 388.8 191.622857 
" style="fill:none;stroke:#b0b0b0;stroke-linecap:square;stroke-width:0.8;"/>
     </g>
     <g id="line2d_42">
      <g>
       <use style="stroke:#000000;stroke-width:0.8;" x="54" xlink:href="#m88576e49ab" y="191.622857"/>
      </g>
     </g>
     <g id="text_22">
      <!-- 0.6 -->
      <g transform="translate(31.096875 195.422076)scale(0.1 -0.1)">
       <use xlink:href="#DejaVuSans-48"/>
       <use x="63.623047" xlink:href="#DejaVuSans-46"/>
       <use x="95.410156" xlink:href="#DejaVuSans-54"/>
      </g>
     </g>
    </g>
    <g id="ytick_5">
     <g id="line2d_43">
      <path clip-path="url(#p18a9eacdcb)" d="M 54 129.497143 
L 388.8 129.497143 
" style="fill:none;stroke:#b0b0b0;stroke-linecap:square;stroke-width:0.8;"/>
     </g>
     <g id="line2d_44">
      <g>
       <use style="stroke:#000000;stroke-width:0.8;" x="54" xlink:href="#m88576e49ab" y="129.497143"/>
      </g>
     </g>
     <g id="text_23">
      <!-- 0.8 -->
      <g transform="translate(31.096875 133.296362)scale(0.1 -0.1)">
       <use xlink:href="#DejaVuSans-48"/>
       <use x="63.623047" xlink:href="#DejaVuSans-46"/>
       <use x="95.410156" xlink:href="#DejaVuSans-56"/>
      </g>
     </g>
    </g>
    <g id="ytick_6">
     <g id="line2d_45">
      <path clip-path="url(#p18a9eacdcb)" d="M 54 67.371429 
L 388.8 67.371429 
" style="fill:none;stroke:#b0b0b0;stroke-linecap:square;stroke-width:0.8;"/>
     </g>
     <g id="line2d_46">
      <g>
       <use style="stroke:#000000;stroke-width:0.8;" x="54" xlink:href="#m88576e49ab" y="67.371429"/>
      </g>
     </g>
     <g id="text_24">
      <!-- 1.0 -->
      <g transform="translate(31.096875 71.170647)scale(0.1 -0.1)">
       <use xlink:href="#DejaVuSans-49"/>
       <use x="63.623047" xlink:href="#DejaVuSans-46"/>
       <use x="95.410156" xlink:href="#DejaVuSans-48"/>
      </g>
     </g>
    </g>
   </g>
   <g id="patch_71">
    <path d="M 54 378 
L 54 51.84 
" style="fill:none;stroke:#000000;stroke-linecap:square;stroke-linejoin:miter;stroke-width:0.8;"/>
   </g>
   <g id="patch_72">
    <path d="M 388.8 378 
L 388.8 51.84 
" style="fill:none;stroke:#000000;stroke-linecap:square;stroke-linejoin:miter;stroke-width:0.8;"/>
   </g>
   <g id="patch_73">
    <path d="M 54 378 
L 388.8 378 
" style="fill:none;stroke:#000000;stroke-linecap:square;stroke-linejoin:miter;stroke-width:0.8;"/>
   </g>
   <g id="patch_74">
    <path d="M 54 51.84 
L 388.8 51.84 
" style="fill:none;stroke:#000000;stroke-linecap:square;stroke-linejoin:miter;stroke-width:0.8;"/>
   </g>
   <g id="legend_1">
    <g id="patch_75">
     <path d="M 395.8 249.0165 
L 454.873438 249.0165 
Q 456.873438 249.0165 456.873438 247.0165 
L 456.873438 189.304 
Q 456.873438 187.304 454.873438 187.304 
L 395.8 187.304 
Q 393.8 187.304 393.8 189.304 
L 393.8 247.0165 
Q 393.8 249.0165 395.8 249.0165 
z
" style="fill:#ffffff;opacity:0.8;stroke:#cccccc;stroke-linejoin:miter;"/>
    </g>
    <g id="patch_76">
     <path d="M 397.8 198.902438 
L 417.8 198.902438 
L 417.8 191.902438 
L 397.8 191.902438 
z
" style="fill:#006ba4;"/>
    </g>
    <g id="text_25">
     <!-- BoM -->
     <defs>
      <path d="M 19.671875 34.8125 
L 19.671875 8.109375 
L 35.5 8.109375 
Q 43.453125 8.109375 47.28125 11.40625 
Q 51.125 14.703125 51.125 21.484375 
Q 51.125 28.328125 47.28125 31.5625 
Q 43.453125 34.8125 35.5 34.8125 
z
M 19.671875 64.796875 
L 19.671875 42.828125 
L 34.28125 42.828125 
Q 41.5 42.828125 45.03125 45.53125 
Q 48.578125 48.25 48.578125 53.8125 
Q 48.578125 59.328125 45.03125 62.0625 
Q 41.5 64.796875 34.28125 64.796875 
z
M 9.8125 72.90625 
L 35.015625 72.90625 
Q 46.296875 72.90625 52.390625 68.21875 
Q 58.5 63.53125 58.5 54.890625 
Q 58.5 48.1875 55.375 44.234375 
Q 52.25 40.28125 46.1875 39.3125 
Q 53.46875 37.75 57.5 32.78125 
Q 61.53125 27.828125 61.53125 20.40625 
Q 61.53125 10.640625 54.890625 5.3125 
Q 48.25 0 35.984375 0 
L 9.8125 0 
z
" id="DejaVuSans-66"/>
      <path d="M 9.8125 72.90625 
L 24.515625 72.90625 
L 43.109375 23.296875 
L 61.8125 72.90625 
L 76.515625 72.90625 
L 76.515625 0 
L 66.890625 0 
L 66.890625 64.015625 
L 48.09375 14.015625 
L 38.1875 14.015625 
L 19.390625 64.015625 
L 19.390625 0 
L 9.8125 0 
z
" id="DejaVuSans-77"/>
     </defs>
     <g transform="translate(425.8 198.902438)scale(0.1 -0.1)">
      <use xlink:href="#DejaVuSans-66"/>
      <use x="68.603516" xlink:href="#DejaVuSans-111"/>
      <use x="129.785156" xlink:href="#DejaVuSans-77"/>
     </g>
    </g>
    <g id="patch_77">
     <path d="M 397.8 213.580563 
L 417.8 213.580563 
L 417.8 206.580563 
L 397.8 206.580563 
z
" style="fill:#ff800e;"/>
    </g>
    <g id="text_26">
     <!-- Brm2 -->
     <defs>
      <path d="M 52 44.1875 
Q 55.375 50.25 60.0625 53.125 
Q 64.75 56 71.09375 56 
Q 79.640625 56 84.28125 50.015625 
Q 88.921875 44.046875 88.921875 33.015625 
L 88.921875 0 
L 79.890625 0 
L 79.890625 32.71875 
Q 79.890625 40.578125 77.09375 44.375 
Q 74.3125 48.1875 68.609375 48.1875 
Q 61.625 48.1875 57.5625 43.546875 
Q 53.515625 38.921875 53.515625 30.90625 
L 53.515625 0 
L 44.484375 0 
L 44.484375 32.71875 
Q 44.484375 40.625 41.703125 44.40625 
Q 38.921875 48.1875 33.109375 48.1875 
Q 26.21875 48.1875 22.15625 43.53125 
Q 18.109375 38.875 18.109375 30.90625 
L 18.109375 0 
L 9.078125 0 
L 9.078125 54.6875 
L 18.109375 54.6875 
L 18.109375 46.1875 
Q 21.1875 51.21875 25.484375 53.609375 
Q 29.78125 56 35.6875 56 
Q 41.65625 56 45.828125 52.96875 
Q 50 49.953125 52 44.1875 
z
" id="DejaVuSans-109"/>
     </defs>
     <g transform="translate(425.8 213.580563)scale(0.1 -0.1)">
      <use xlink:href="#DejaVuSans-66"/>
      <use x="68.603516" xlink:href="#DejaVuSans-114"/>
      <use x="109.701172" xlink:href="#DejaVuSans-109"/>
      <use x="207.113281" xlink:href="#DejaVuSans-50"/>
     </g>
    </g>
    <g id="patch_78">
     <path d="M 397.8 228.258688 
L 417.8 228.258688 
L 417.8 221.258688 
L 397.8 221.258688 
z
" style="fill:#ababab;"/>
    </g>
    <g id="text_27">
     <!-- LM2 -->
     <defs>
      <path d="M 9.8125 72.90625 
L 19.671875 72.90625 
L 19.671875 8.296875 
L 55.171875 8.296875 
L 55.171875 0 
L 9.8125 0 
z
" id="DejaVuSans-76"/>
     </defs>
     <g transform="translate(425.8 228.258688)scale(0.1 -0.1)">
      <use xlink:href="#DejaVuSans-76"/>
      <use x="55.712891" xlink:href="#DejaVuSans-77"/>
      <use x="141.992188" xlink:href="#DejaVuSans-50"/>
     </g>
    </g>
    <g id="patch_79">
     <path d="M 397.8 242.936813 
L 417.8 242.936813 
L 417.8 235.936813 
L 397.8 235.936813 
z
" style="fill:#595959;"/>
    </g>
    <g id="text_28">
     <!-- TGL -->
     <defs>
      <path d="M -0.296875 72.90625 
L 61.375 72.90625 
L 61.375 64.59375 
L 35.5 64.59375 
L 35.5 0 
L 25.59375 0 
L 25.59375 64.59375 
L -0.296875 64.59375 
z
" id="DejaVuSans-84"/>
      <path d="M 59.515625 10.40625 
L 59.515625 29.984375 
L 43.40625 29.984375 
L 43.40625 38.09375 
L 69.28125 38.09375 
L 69.28125 6.78125 
Q 63.578125 2.734375 56.6875 0.65625 
Q 49.8125 -1.421875 42 -1.421875 
Q 24.90625 -1.421875 15.25 8.5625 
Q 5.609375 18.5625 5.609375 36.375 
Q 5.609375 54.25 15.25 64.234375 
Q 24.90625 74.21875 42 74.21875 
Q 49.125 74.21875 55.546875 72.453125 
Q 61.96875 70.703125 67.390625 67.28125 
L 67.390625 56.78125 
Q 61.921875 61.421875 55.765625 63.765625 
Q 49.609375 66.109375 42.828125 66.109375 
Q 29.4375 66.109375 22.71875 58.640625 
Q 16.015625 51.171875 16.015625 36.375 
Q 16.015625 21.625 22.71875 14.15625 
Q 29.4375 6.6875 42.828125 6.6875 
Q 48.046875 6.6875 52.140625 7.59375 
Q 56.25 8.5 59.515625 10.40625 
z
" id="DejaVuSans-71"/>
     </defs>
     <g transform="translate(425.8 242.936813)scale(0.1 -0.1)">
      <use xlink:href="#DejaVuSans-84"/>
      <use x="61.083984" xlink:href="#DejaVuSans-71"/>
      <use x="138.574219" xlink:href="#DejaVuSans-76"/>
     </g>
    </g>
   </g>
  </g>
 </g>
 <defs>
  <clipPath id="p18a9eacdcb">
   <rect height="326.16" width="334.8" x="54" y="51.84"/>
  </clipPath>
 </defs>
</svg>
